<svg height="494" width="720" xmlns="http://www.w3.org/2000/svg">
<rect height="494" fill="#555" width="720"></rect>
<text fill="#7f7" font-family="Courier New" font-size="12" xml:space="preserve">
<tspan x="10" y="26">└─┬ grunt-prompt@1.3.3 </tspan>
<tspan x="10" y="42">  ├─┬ inquirer@0.11.4 </tspan>
<tspan x="10" y="58">  │ ├── ansi-escapes@1.4.0 </tspan>
<tspan x="10" y="74">  │ ├── ansi-regex@2.1.1 </tspan>
<tspan x="10" y="90">  │ ├─┬ chalk@1.1.3 </tspan>
<tspan x="10" y="106">  │ │ ├── ansi-styles@2.2.1 </tspan>
<tspan x="10" y="122">  │ │ ├── escape-string-regexp@1.0.5 </tspan>
<tspan x="10" y="138">  │ │ ├── has-ansi@2.0.0 </tspan>
<tspan x="10" y="154">  │ │ └── supports-color@2.0.0 </tspan>
<tspan x="10" y="170">  │ ├─┬ cli-cursor@1.0.2 </tspan>
<tspan x="10" y="186">  │ │ └─┬ restore-cursor@1.0.1 </tspan>
<tspan x="10" y="202">  │ │   ├── exit-hook@1.1.1 </tspan>
<tspan x="10" y="218">  │ │   └── onetime@1.1.0 </tspan>
<tspan x="10" y="234">  │ ├── cli-width@1.1.1 </tspan>
<tspan x="10" y="250">  │ ├─┬ figures@1.7.0 </tspan>
<tspan x="10" y="266">  │ │ └── object-assign@4.1.1 </tspan>
<tspan x="10" y="282">  │ ├─┬ readline2@1.0.1 </tspan>
<tspan x="10" y="298">  │ │ ├── code-point-at@1.1.0 </tspan>
<tspan x="10" y="314">  │ │ ├─┬ is-fullwidth-code-point@1.0.0 </tspan>
<tspan x="10" y="330">  │ │ │ └── number-is-nan@1.0.1 </tspan>
<tspan x="10" y="346">  │ │ └── mute-stream@0.0.5 </tspan>
<tspan x="10" y="362">  │ ├─┬ run-async@0.1.0 </tspan>
<tspan x="10" y="378">  │ │ └─┬ once@1.4.0 </tspan>
<tspan x="10" y="394">  │ │   └── wrappy@1.0.2 </tspan>
<tspan x="10" y="410">  │ ├── rx-lite@3.1.2 </tspan>
<tspan x="10" y="426">  │ ├── string-width@1.0.2 </tspan>
<tspan x="10" y="442">  │ ├── strip-ansi@3.0.1 </tspan>
<tspan x="10" y="458">  │ └── through@2.3.8 </tspan>
<tspan x="10" y="474">  └── lodash@3.10.1</tspan>
</text>
</svg>
